<svg xmlns="http://www.w3.org/2000/svg" width="22" height="22" viewBox="0 0 22 22" class="z_input_icon a_pointer"><g fill="none" fill-rule="evenodd"><path fill="#DDD" d="M11 4C6.255 4 2.378 6.94 1 11c1.378 4.06 5.255 7 10 7s8.622-2.94 10-7c-1.378-4.06-5.255-7-10-7z" class="z_input_path"></path> <path fill="#FFF" d="M16 11a5 5 0 1 0-10 0 5 5 0 0 0 10 0z" class="z_input_path_bg"></path> <path fill="#DDD" d="M14 11a3 3 0 1 0-6 0 3 3 0 0 0 6 0z" class="z_input_path"></path> <path fill="#FFF" d="M14 9a1 1 0 1 0-2 0 1 1 0 0 0 2 0z" class="z_input_path_bg"></path> <path stroke="#DDD" stroke-linecap="round" stroke-width="1.2" d="M18.5 3.5l-15 15" class="z_input_path_stroke"></path></g></svg>